<?xml version="1.0" encoding="utf-8"?>
<!-- Generator: Adobe Illustrator 22.1.0, SVG Export Plug-In . SVG Version: 6.00 Build 0)  -->
<svg version="1.1" id="Layer_1" xmlns="http://www.w3.org/2000/svg" xmlns:xlink="http://www.w3.org/1999/xlink" x="0px" y="0px"
	 viewBox="0 0 1024 1024" style="enable-background:new 0 0 1024 1024;" xml:space="preserve">
<style type="text/css">
	.st0{fill:url(#SVGID_1_);}
	.st1{fill:url(#SVGID_2_);}
	.st2{fill:#FFFFFF;}
	.st3{fill:#FEDA10;}
	.st4{fill:url(#SVGID_3_);}
	.st5{fill:url(#SVGID_4_);}
</style>
<g>
	<g>
		<linearGradient id="SVGID_1_" gradientUnits="userSpaceOnUse" x1="512" y1="23.0395" x2="512" y2="1036.9169">
			<stop  offset="0" style="stop-color:#0096FF"/>
			<stop  offset="1" style="stop-color:#0075FF"/>
		</linearGradient>
		<rect x="0" class="st0" width="1024" height="1024"/>
	</g>
	<g>
		<linearGradient id="SVGID_2_" gradientUnits="userSpaceOnUse" x1="512" y1="826.88" x2="512" y2="345.4911">
			<stop  offset="0" style="stop-color:#0096FF"/>
			<stop  offset="1" style="stop-color:#0075FF"/>
		</linearGradient>
		<path class="st1" d="M512,186.5c-83.4,0-166.8,31.7-230.3,95.2c-127,127-127,333.6,0,460.6c127,127,333.6,127,460.6,0
			c127-127,127-333.6,0-460.6C678.8,218.2,595.4,186.5,512,186.5z"/>
	</g>
	<path class="st2" d="M778.5,245.5c-23.6-23.6-49.9-43.7-78.1-60L678.5,0H358.7l-21,177.8c-33.5,17.5-64.6,40.2-92.1,67.8
		c-146.9,146.9-146.9,386,0,533c27.5,27.5,58.6,50.2,92.1,67.8l21,177.8h319.8l21.9-185.5c28.2-16.3,54.5-36.4,78.1-60
		C925.4,631.5,925.4,392.5,778.5,245.5z M281.7,742.3c-127-127-127-333.6,0-460.6c63.5-63.5,146.9-95.2,230.3-95.2
		s166.8,31.7,230.3,95.2c127,127,127,333.6,0,460.6C615.3,869.3,408.7,869.3,281.7,742.3z"/>
	<g>
		<path class="st3" d="M760.4,786c-6.6,0-13.1-2.5-18.1-7.5c-10-10-10-26.2,0-36.2c127-127,127-333.6,0-460.6c-10-10-10-26.2,0-36.2
			c10-10,26.2-10,36.2,0c146.9,146.9,146.9,386,0,533C773.5,783.5,766.9,786,760.4,786z"/>
	</g>
	<g>
		<path class="st3" d="M674.7,718.6c-6.6,0-13.1-2.5-18.1-7.5c-10-10-10-26.2,0-36.2c89.8-89.9,89.8-236,0-325.9
			c-10-10-10-26.2,0-36.2c10-10,26.2-10,36.2,0c109.8,109.8,109.8,288.5,0,398.3C687.8,716.1,681.3,718.6,674.7,718.6z"/>
	</g>
	<g>
		<path class="st3" d="M593.7,642.1c-6.6,0-13.1-2.5-18.1-7.5c-10-10-10-26.2,0-36.2c47.6-47.6,47.6-125.1,0-172.7
			c-10-10-10-26.2,0-36.2c10-10,26.2-10,36.2,0c67.6,67.6,67.6,177.5,0,245.1C606.8,639.6,600.2,642.1,593.7,642.1z"/>
	</g>
	<path class="st2" d="M495.5,348.8c-5.3-2.6-11.7-1.8-16.3,1.9l-108.8,87.5h-74.2c-8.5,0-15.4,6.9-15.4,15.4v116.8
		c0,8.5,6.9,15.4,15.4,15.4h74.2l108.8,87.5c2.8,2.2,6.2,3.4,9.6,3.4c2.3,0,4.5-0.5,6.6-1.5c5.3-2.6,8.7-7.9,8.7-13.9V362.7
		C504.2,356.8,500.8,351.4,495.5,348.8z"/>
</g>
</svg>
